<svg width="20" height="19" viewBox="0 0 20 19" fill="none" xmlns="http://www.w3.org/2000/svg">
<path fill-rule="evenodd" clip-rule="evenodd" d="M15.9235 1.13778C16.2024 0.858837 16.6547 0.858837 16.9336 1.13778L19.7908 3.99493C20.0697 4.27387 20.0697 4.72613 19.7908 5.00508C19.5118 5.28402 19.0596 5.28402 18.7806 5.00508L16.4286 2.65301L8.53363 10.5479C8.25469 10.8269 7.80243 10.8269 7.52348 10.5479C7.24453 10.269 7.24453 9.81673 7.52348 9.53778L15.9235 1.13778Z" fill="#5C5F6A"/>
<path fill-rule="evenodd" clip-rule="evenodd" d="M12.7092 4.35207C12.9882 4.07312 13.4404 4.07312 13.7194 4.35207L16.2194 6.85207C16.4983 7.13102 16.4983 7.58328 16.2194 7.86222C15.9404 8.14117 15.4882 8.14117 15.2092 7.86222L12.7092 5.36222C12.4303 5.08328 12.4303 4.63102 12.7092 4.35207Z" fill="#5C5F6A"/>
<path fill-rule="evenodd" clip-rule="evenodd" d="M0 13.0714C0 10.31 2.23858 8.07143 5 8.07143C7.76142 8.07143 10 10.31 10 13.0714C10 15.8329 7.76141 18.0714 5 18.0714C2.23859 18.0714 0 15.8329 0 13.0714ZM5 9.50001C3.02756 9.50001 1.42857 11.099 1.42857 13.0714C1.42857 15.0439 3.02755 16.6429 5 16.6429C6.97245 16.6429 8.57143 15.0439 8.57143 13.0714C8.57143 11.099 6.97244 9.50001 5 9.50001Z" fill="#5C5F6A"/>
</svg>
